<svg xmlns="http://www.w3.org/2000/svg" viewBox="0 0 480 360" width="480" height="360"><defs><radialGradient id="bg" cx="50%" cy="40%" r="75%"><stop offset="0" stop-color="#FFF8EC"/><stop offset="1" stop-color="#A0522D" stop-opacity=".55"/></radialGradient><radialGradient id="f" cx="40%" cy="35%" r="70%"><stop offset="0" stop-color="#E2BC84"/><stop offset="1" stop-color="#C99C5E"/></radialGradient><radialGradient id="p" cx="50%" cy="40%" r="60%"><stop offset="0" stop-color="#fff"/><stop offset=".85" stop-color="#F4EFE6"/><stop offset="1" stop-color="#E4DCCD"/></radialGradient></defs><rect width="480" height="360" fill="url(#bg)"/><path d="M0 25 Q240 21 480 25" stroke="#A0522D" stroke-opacity=".12" stroke-width="2" fill="none"/><path d="M0 84 Q240 85 480 84" stroke="#A0522D" stroke-opacity=".12" stroke-width="2" fill="none"/><path d="M0 142 Q240 138 480 142" stroke="#A0522D" stroke-opacity=".12" stroke-width="2" fill="none"/><path d="M0 205 Q240 214 480 205" stroke="#A0522D" stroke-opacity=".12" stroke-width="2" fill="none"/><path d="M0 263 Q240 257 480 263" stroke="#A0522D" stroke-opacity=".12" stroke-width="2" fill="none"/><path d="M0 314 Q240 304 480 314" stroke="#A0522D" stroke-opacity=".12" stroke-width="2" fill="none"/><ellipse cx="240" cy="208" rx="190" ry="128" fill="#000" opacity=".10"/><ellipse cx="240" cy="190" rx="188" ry="126" fill="url(#p)"/><ellipse cx="240" cy="190" rx="150" ry="98" fill="none" stroke="#E7DFD0" stroke-width="3"/><ellipse cx="210" cy="170" rx="128" ry="66" fill="url(#f)" stroke="#C99C5E" stroke-width="2" transform="rotate(-12 210 170)"/><ellipse cx="250" cy="190" rx="128" ry="66" fill="url(#f)" stroke="#C99C5E" stroke-width="2" transform="rotate(8 250 190)"/><ellipse cx="270" cy="210" rx="128" ry="66" fill="url(#f)" stroke="#C99C5E" stroke-width="2" transform="rotate(-4 270 210)"/><ellipse cx="191" cy="255" rx="6" ry="3" fill="#7A4A1E" opacity=".45"/><ellipse cx="273" cy="203" rx="11" ry="5" fill="#7A4A1E" opacity=".45"/><ellipse cx="212" cy="174" rx="10" ry="3" fill="#7A4A1E" opacity=".45"/><ellipse cx="345" cy="223" rx="10" ry="5" fill="#7A4A1E" opacity=".45"/><ellipse cx="323" cy="190" rx="6" ry="3" fill="#7A4A1E" opacity=".45"/><ellipse cx="273" cy="229" rx="9" ry="5" fill="#7A4A1E" opacity=".45"/><ellipse cx="146" cy="224" rx="9" ry="6" fill="#7A4A1E" opacity=".45"/><ellipse cx="267" cy="234" rx="10" ry="5" fill="#7A4A1E" opacity=".45"/><ellipse cx="211" cy="211" rx="8" ry="6" fill="#7A4A1E" opacity=".45"/><ellipse cx="211" cy="212" rx="6" ry="3" fill="#7A4A1E" opacity=".45"/><ellipse cx="330" cy="230" rx="10" ry="6" fill="#7A4A1E" opacity=".45"/><ellipse cx="345" cy="240" rx="10" ry="5" fill="#7A4A1E" opacity=".45"/><ellipse cx="310" cy="241" rx="9" ry="6" fill="#7A4A1E" opacity=".45"/><ellipse cx="244" cy="214" rx="5" ry="4" fill="#7A4A1E" opacity=".45"/><ellipse cx="276" cy="232" rx="12" ry="3" fill="#7A4A1E" opacity=".45"/><ellipse cx="309" cy="203" rx="9" ry="4" fill="#7A4A1E" opacity=".45"/><ellipse cx="199" cy="184" rx="12" ry="6" fill="#7A4A1E" opacity=".45"/><ellipse cx="247" cy="189" rx="5" ry="4" fill="#7A4A1E" opacity=".45"/><ellipse cx="322" cy="188" rx="9" ry="5" fill="#7A4A1E" opacity=".45"/><ellipse cx="229" cy="172" rx="7" ry="5" fill="#7A4A1E" opacity=".45"/><ellipse cx="307" cy="234" rx="5" ry="3" fill="#7A4A1E" opacity=".45"/><ellipse cx="195" cy="170" rx="8" ry="3" fill="#7A4A1E" opacity=".45"/><ellipse cx="336" cy="171" rx="7" ry="4" fill="#7A4A1E" opacity=".45"/><ellipse cx="156" cy="248" rx="8" ry="6" fill="#7A4A1E" opacity=".45"/><ellipse cx="135" cy="225" rx="7" ry="3" fill="#7A4A1E" opacity=".45"/><ellipse cx="193" cy="214" rx="11" ry="5" fill="#7A4A1E" opacity=".45"/></svg>