<svg xmlns="http://www.w3.org/2000/svg" viewBox="0 0 480 360" width="480" height="360"><defs><radialGradient id="bg" cx="50%" cy="40%" r="75%"><stop offset="0" stop-color="#FFF8EC"/><stop offset="1" stop-color="#B9770E" stop-opacity=".55"/></radialGradient><radialGradient id="f" cx="40%" cy="35%" r="70%"><stop offset="0" stop-color="#E8A33C"/><stop offset="1" stop-color="#C9821E"/></radialGradient><radialGradient id="p" cx="50%" cy="40%" r="60%"><stop offset="0" stop-color="#fff"/><stop offset=".85" stop-color="#F4EFE6"/><stop offset="1" stop-color="#E4DCCD"/></radialGradient></defs><rect width="480" height="360" fill="url(#bg)"/><path d="M0 22 Q240 17 480 22" stroke="#B9770E" stroke-opacity=".12" stroke-width="2" fill="none"/><path d="M0 78 Q240 79 480 78" stroke="#B9770E" stroke-opacity=".12" stroke-width="2" fill="none"/><path d="M0 146 Q240 145 480 146" stroke="#B9770E" stroke-opacity=".12" stroke-width="2" fill="none"/><path d="M0 198 Q240 202 480 198" stroke="#B9770E" stroke-opacity=".12" stroke-width="2" fill="none"/><path d="M0 256 Q240 253 480 256" stroke="#B9770E" stroke-opacity=".12" stroke-width="2" fill="none"/><path d="M0 325 Q240 335 480 325" stroke="#B9770E" stroke-opacity=".12" stroke-width="2" fill="none"/><ellipse cx="240" cy="208" rx="190" ry="128" fill="#000" opacity=".10"/><ellipse cx="240" cy="190" rx="188" ry="126" fill="url(#p)"/><ellipse cx="240" cy="190" rx="150" ry="98" fill="none" stroke="#E7DFD0" stroke-width="3"/><ellipse cx="240" cy="196" rx="125" ry="72" fill="#C9821E"/><ellipse cx="240" cy="184" rx="110" ry="62" fill="url(#f)"/><ellipse cx="247" cy="232" rx="6" ry="2.2" fill="#E8A33C" transform="rotate(164 247 232)"/><ellipse cx="317" cy="199" rx="6" ry="2.2" fill="#FFFDF5" transform="rotate(92 317 199)"/><ellipse cx="151" cy="178" rx="6" ry="2.2" fill="#E8A33C" transform="rotate(50 151 178)"/><ellipse cx="184" cy="153" rx="6" ry="2.2" fill="#FFFFFF" transform="rotate(122 184 153)"/><ellipse cx="297" cy="151" rx="6" ry="2.2" fill="#FFF6DC" transform="rotate(56 297 151)"/><ellipse cx="188" cy="143" rx="6" ry="2.2" fill="#E8A33C" transform="rotate(166 188 143)"/><ellipse cx="266" cy="154" rx="6" ry="2.2" fill="#FFFFFF" transform="rotate(92 266 154)"/><ellipse cx="212" cy="231" rx="6" ry="2.2" fill="#E8A33C" transform="rotate(65 212 231)"/><ellipse cx="280" cy="200" rx="6" ry="2.2" fill="#FFF6DC" transform="rotate(33 280 200)"/><ellipse cx="336" cy="186" rx="6" ry="2.2" fill="#FFF6DC" transform="rotate(114 336 186)"/><ellipse cx="251" cy="170" rx="6" ry="2.2" fill="#FFFDF5" transform="rotate(180 251 170)"/><ellipse cx="270" cy="212" rx="6" ry="2.2" fill="#FFFDF5" transform="rotate(170 270 212)"/><ellipse cx="170" cy="181" rx="6" ry="2.2" fill="#FFFFFF" transform="rotate(119 170 181)"/><ellipse cx="200" cy="185" rx="6" ry="2.2" fill="#FFFDF5" transform="rotate(35 200 185)"/><ellipse cx="211" cy="213" rx="6" ry="2.2" fill="#FFFDF5" transform="rotate(16 211 213)"/><ellipse cx="156" cy="159" rx="6" ry="2.2" fill="#E8A33C" transform="rotate(50 156 159)"/><ellipse cx="310" cy="223" rx="6" ry="2.2" fill="#FFF6DC" transform="rotate(107 310 223)"/><ellipse cx="169" cy="222" rx="6" ry="2.2" fill="#E8A33C" transform="rotate(10 169 222)"/><ellipse cx="183" cy="232" rx="6" ry="2.2" fill="#E8A33C" transform="rotate(158 183 232)"/><ellipse cx="249" cy="189" rx="6" ry="2.2" fill="#FFF6DC" transform="rotate(90 249 189)"/><ellipse cx="198" cy="184" rx="6" ry="2.2" fill="#FFFFFF" transform="rotate(27 198 184)"/><ellipse cx="227" cy="191" rx="6" ry="2.2" fill="#E8A33C" transform="rotate(29 227 191)"/><ellipse cx="155" cy="155" rx="6" ry="2.2" fill="#FFFDF5" transform="rotate(135 155 155)"/><ellipse cx="185" cy="227" rx="6" ry="2.2" fill="#FFFFFF" transform="rotate(14 185 227)"/><ellipse cx="310" cy="206" rx="6" ry="2.2" fill="#FFFFFF" transform="rotate(33 310 206)"/><ellipse cx="298" cy="145" rx="6" ry="2.2" fill="#FFF6DC" transform="rotate(23 298 145)"/><ellipse cx="199" cy="228" rx="6" ry="2.2" fill="#FFF6DC" transform="rotate(157 199 228)"/><ellipse cx="322" cy="164" rx="6" ry="2.2" fill="#FFFFFF" transform="rotate(103 322 164)"/><ellipse cx="292" cy="235" rx="6" ry="2.2" fill="#FFFFFF" transform="rotate(63 292 235)"/><ellipse cx="316" cy="193" rx="6" ry="2.2" fill="#FFFFFF" transform="rotate(151 316 193)"/><ellipse cx="167" cy="159" rx="6" ry="2.2" fill="#FFF6DC" transform="rotate(1 167 159)"/><ellipse cx="231" cy="171" rx="6" ry="2.2" fill="#FFFFFF" transform="rotate(79 231 171)"/><ellipse cx="177" cy="194" rx="6" ry="2.2" fill="#E8A33C" transform="rotate(111 177 194)"/><ellipse cx="308" cy="176" rx="6" ry="2.2" fill="#E8A33C" transform="rotate(22 308 176)"/><ellipse cx="292" cy="142" rx="6" ry="2.2" fill="#FFF6DC" transform="rotate(103 292 142)"/><ellipse cx="242" cy="226" rx="6" ry="2.2" fill="#FFF6DC" transform="rotate(62 242 226)"/><ellipse cx="204" cy="189" rx="6" ry="2.2" fill="#FFFDF5" transform="rotate(156 204 189)"/><ellipse cx="290" cy="198" rx="6" ry="2.2" fill="#E8A33C" transform="rotate(72 290 198)"/><ellipse cx="317" cy="147" rx="6" ry="2.2" fill="#FFFFFF" transform="rotate(47 317 147)"/><ellipse cx="194" cy="157" rx="6" ry="2.2" fill="#E8A33C" transform="rotate(31 194 157)"/><ellipse cx="184" cy="218" rx="6" ry="2.2" fill="#E8A33C" transform="rotate(72 184 218)"/><ellipse cx="331" cy="184" rx="6" ry="2.2" fill="#FFFDF5" transform="rotate(75 331 184)"/><ellipse cx="315" cy="185" rx="6" ry="2.2" fill="#FFFDF5" transform="rotate(152 315 185)"/><ellipse cx="233" cy="220" rx="6" ry="2.2" fill="#FFFDF5" transform="rotate(67 233 220)"/><ellipse cx="183" cy="221" rx="6" ry="2.2" fill="#FFFFFF" transform="rotate(71 183 221)"/><ellipse cx="175" cy="226" rx="6" ry="2.2" fill="#FFFFFF" transform="rotate(154 175 226)"/><ellipse cx="154" cy="173" rx="6" ry="2.2" fill="#FFFDF5" transform="rotate(126 154 173)"/><ellipse cx="161" cy="206" rx="6" ry="2.2" fill="#E8A33C" transform="rotate(45 161 206)"/><ellipse cx="248" cy="179" rx="6" ry="2.2" fill="#FFF6DC" transform="rotate(53 248 179)"/><ellipse cx="278" cy="197" rx="6" ry="2.2" fill="#FFFFFF" transform="rotate(177 278 197)"/><ellipse cx="162" cy="202" rx="6" ry="2.2" fill="#FFFDF5" transform="rotate(139 162 202)"/><ellipse cx="266" cy="167" rx="6" ry="2.2" fill="#FFFFFF" transform="rotate(132 266 167)"/><ellipse cx="208" cy="178" rx="6" ry="2.2" fill="#E8A33C" transform="rotate(25 208 178)"/><ellipse cx="308" cy="151" rx="6" ry="2.2" fill="#E8A33C" transform="rotate(71 308 151)"/><ellipse cx="171" cy="195" rx="6" ry="2.2" fill="#E8A33C" transform="rotate(39 171 195)"/><ellipse cx="154" cy="198" rx="6" ry="2.2" fill="#FFFFFF" transform="rotate(75 154 198)"/><ellipse cx="269" cy="187" rx="6" ry="2.2" fill="#E8A33C" transform="rotate(124 269 187)"/><ellipse cx="314" cy="217" rx="6" ry="2.2" fill="#FFF6DC" transform="rotate(176 314 217)"/><ellipse cx="216" cy="186" rx="6" ry="2.2" fill="#E8A33C" transform="rotate(158 216 186)"/><ellipse cx="242" cy="164" rx="6" ry="2.2" fill="#E8A33C" transform="rotate(11 242 164)"/><ellipse cx="155" cy="150" rx="6" ry="2.2" fill="#E8A33C" transform="rotate(129 155 150)"/><ellipse cx="326" cy="157" rx="6" ry="2.2" fill="#FFFFFF" transform="rotate(82 326 157)"/><ellipse cx="143" cy="195" rx="6" ry="2.2" fill="#E8A33C" transform="rotate(119 143 195)"/><ellipse cx="265" cy="151" rx="6" ry="2.2" fill="#FFFFFF" transform="rotate(20 265 151)"/><ellipse cx="303" cy="194" rx="6" ry="2.2" fill="#FFFDF5" transform="rotate(85 303 194)"/><ellipse cx="170" cy="151" rx="6" ry="2.2" fill="#FFF6DC" transform="rotate(40 170 151)"/><ellipse cx="141" cy="203" rx="6" ry="2.2" fill="#FFFDF5" transform="rotate(148 141 203)"/><ellipse cx="151" cy="171" rx="6" ry="2.2" fill="#FFFDF5" transform="rotate(78 151 171)"/><ellipse cx="312" cy="218" rx="6" ry="2.2" fill="#FFF6DC" transform="rotate(46 312 218)"/><ellipse cx="173" cy="221" rx="6" ry="2.2" fill="#FFF6DC" transform="rotate(101 173 221)"/><ellipse cx="252" cy="183" rx="6" ry="2.2" fill="#E8A33C" transform="rotate(120 252 183)"/><ellipse cx="168" cy="204" rx="6" ry="2.2" fill="#E8A33C" transform="rotate(14 168 204)"/><ellipse cx="288" cy="175" rx="6" ry="2.2" fill="#FFF6DC" transform="rotate(101 288 175)"/><ellipse cx="157" cy="192" rx="6" ry="2.2" fill="#FFF6DC" transform="rotate(2 157 192)"/><ellipse cx="159" cy="202" rx="6" ry="2.2" fill="#FFFFFF" transform="rotate(96 159 202)"/><ellipse cx="187" cy="176" rx="6" ry="2.2" fill="#E8A33C" transform="rotate(136 187 176)"/><ellipse cx="315" cy="223" rx="6" ry="2.2" fill="#FFFFFF" transform="rotate(106 315 223)"/><ellipse cx="180" cy="139" rx="6" ry="2.2" fill="#FFFFFF" transform="rotate(91 180 139)"/><ellipse cx="202" cy="143" rx="6" ry="2.2" fill="#E8A33C" transform="rotate(117 202 143)"/><ellipse cx="314" cy="157" rx="6" ry="2.2" fill="#FFFFFF" transform="rotate(177 314 157)"/><ellipse cx="197" cy="206" rx="6" ry="2.2" fill="#FFFDF5" transform="rotate(155 197 206)"/><ellipse cx="226" cy="159" rx="6" ry="2.2" fill="#FFFDF5" transform="rotate(16 226 159)"/><ellipse cx="190" cy="153" rx="6" ry="2.2" fill="#FFF6DC" transform="rotate(33 190 153)"/><ellipse cx="260" cy="218" rx="6" ry="2.2" fill="#FFFDF5" transform="rotate(133 260 218)"/><ellipse cx="213" cy="183" rx="6" ry="2.2" fill="#E8A33C" transform="rotate(64 213 183)"/><ellipse cx="269" cy="148" rx="6" ry="2.2" fill="#FFFFFF" transform="rotate(89 269 148)"/><ellipse cx="192" cy="185" rx="6" ry="2.2" fill="#FFFFFF" transform="rotate(146 192 185)"/><ellipse cx="210" cy="194" rx="6" ry="2.2" fill="#FFFDF5" transform="rotate(177 210 194)"/><ellipse cx="304" cy="142" rx="6" ry="2.2" fill="#FFFDF5" transform="rotate(147 304 142)"/><ellipse cx="314" cy="152" rx="6" ry="2.2" fill="#FFFFFF" transform="rotate(13 314 152)"/><ellipse cx="179" cy="173" rx="6" ry="2.2" fill="#FFFFFF" transform="rotate(180 179 173)"/><ellipse cx="272" cy="222" rx="6" ry="2.2" fill="#FFF6DC" transform="rotate(143 272 222)"/><ellipse cx="326" cy="195" rx="6" ry="2.2" fill="#E8A33C" transform="rotate(130 326 195)"/><ellipse cx="211" cy="193" rx="6" ry="2.2" fill="#FFFDF5" transform="rotate(4 211 193)"/><ellipse cx="147" cy="205" rx="6" ry="2.2" fill="#FFF6DC" transform="rotate(134 147 205)"/><ellipse cx="236" cy="234" rx="6" ry="2.2" fill="#FFFFFF" transform="rotate(171 236 234)"/><ellipse cx="246" cy="201" rx="6" ry="2.2" fill="#E8A33C" transform="rotate(84 246 201)"/><ellipse cx="236" cy="157" rx="6" ry="2.2" fill="#FFFFFF" transform="rotate(120 236 157)"/><ellipse cx="152" cy="157" rx="6" ry="2.2" fill="#FFF6DC" transform="rotate(33 152 157)"/><ellipse cx="201" cy="226" rx="6" ry="2.2" fill="#FFFDF5" transform="rotate(110 201 226)"/><ellipse cx="302" cy="169" rx="6" ry="2.2" fill="#FFF6DC" transform="rotate(64 302 169)"/><ellipse cx="329" cy="159" rx="6" ry="2.2" fill="#FFFDF5" transform="rotate(36 329 159)"/><ellipse cx="161" cy="152" rx="6" ry="2.2" fill="#FFFFFF" transform="rotate(147 161 152)"/><ellipse cx="193" cy="161" rx="6" ry="2.2" fill="#FFF6DC" transform="rotate(116 193 161)"/><ellipse cx="324" cy="158" rx="6" ry="2.2" fill="#FFFDF5" transform="rotate(143 324 158)"/><ellipse cx="248" cy="221" rx="6" ry="2.2" fill="#E8A33C" transform="rotate(170 248 221)"/><ellipse cx="261" cy="234" rx="6" ry="2.2" fill="#FFF6DC" transform="rotate(134 261 234)"/><ellipse cx="160" cy="168" rx="6" ry="2.2" fill="#FFF6DC" transform="rotate(104 160 168)"/><ellipse cx="269" cy="173" rx="6" ry="2.2" fill="#FFFFFF" transform="rotate(24 269 173)"/><ellipse cx="326" cy="186" rx="6" ry="2.2" fill="#FFFDF5" transform="rotate(172 326 186)"/><ellipse cx="215" cy="151" rx="6" ry="2.2" fill="#FFFDF5" transform="rotate(6 215 151)"/><ellipse cx="147" cy="180" rx="6" ry="2.2" fill="#E8A33C" transform="rotate(47 147 180)"/><ellipse cx="189" cy="151" rx="6" ry="2.2" fill="#FFFDF5" transform="rotate(76 189 151)"/><ellipse cx="156" cy="194" rx="6" ry="2.2" fill="#E8A33C" transform="rotate(32 156 194)"/><ellipse cx="284" cy="146" rx="6" ry="2.2" fill="#E8A33C" transform="rotate(23 284 146)"/><ellipse cx="236" cy="147" rx="6" ry="2.2" fill="#FFF6DC" transform="rotate(31 236 147)"/><ellipse cx="178" cy="184" rx="6" ry="2.2" fill="#FFFDF5" transform="rotate(105 178 184)"/><ellipse cx="335" cy="160" rx="6" ry="2.2" fill="#FFFFFF" transform="rotate(158 335 160)"/><ellipse cx="213" cy="185" rx="9" ry="4.5" fill="#3E8E41" transform="rotate(20 213 185)"/><ellipse cx="260" cy="201" rx="9" ry="4.5" fill="#3E8E41" transform="rotate(93 260 201)"/><ellipse cx="301" cy="169" rx="9" ry="4.5" fill="#3E8E41" transform="rotate(53 301 169)"/><ellipse cx="210" cy="203" rx="9" ry="4.5" fill="#3E8E41" transform="rotate(143 210 203)"/><ellipse cx="175" cy="201" rx="9" ry="4.5" fill="#3E8E41" transform="rotate(78 175 201)"/><ellipse cx="226" cy="170" rx="9" ry="4.5" fill="#3E8E41" transform="rotate(9 226 170)"/><ellipse cx="234" cy="205" rx="9" ry="4.5" fill="#3E8E41" transform="rotate(159 234 205)"/></svg>