<svg xmlns="http://www.w3.org/2000/svg" viewBox="0 0 480 360" width="480" height="360"><defs><radialGradient id="bg" cx="50%" cy="40%" r="75%"><stop offset="0" stop-color="#FFF8EC"/><stop offset="1" stop-color="#C0392B" stop-opacity=".55"/></radialGradient><radialGradient id="f" cx="40%" cy="35%" r="70%"><stop offset="0" stop-color="#6E9B3A"/><stop offset="1" stop-color="#527A25"/></radialGradient><radialGradient id="p" cx="50%" cy="40%" r="60%"><stop offset="0" stop-color="#fff"/><stop offset=".85" stop-color="#F4EFE6"/><stop offset="1" stop-color="#E4DCCD"/></radialGradient></defs><rect width="480" height="360" fill="url(#bg)"/><path d="M0 23 Q240 26 480 23" stroke="#C0392B" stroke-opacity=".12" stroke-width="2" fill="none"/><path d="M0 78 Q240 78 480 78" stroke="#C0392B" stroke-opacity=".12" stroke-width="2" fill="none"/><path d="M0 135 Q240 139 480 135" stroke="#C0392B" stroke-opacity=".12" stroke-width="2" fill="none"/><path d="M0 201 Q240 206 480 201" stroke="#C0392B" stroke-opacity=".12" stroke-width="2" fill="none"/><path d="M0 256 Q240 257 480 256" stroke="#C0392B" stroke-opacity=".12" stroke-width="2" fill="none"/><path d="M0 325 Q240 321 480 325" stroke="#C0392B" stroke-opacity=".12" stroke-width="2" fill="none"/><ellipse cx="240" cy="208" rx="190" ry="128" fill="#000" opacity=".10"/><ellipse cx="240" cy="190" rx="188" ry="126" fill="url(#p)"/><ellipse cx="240" cy="190" rx="150" ry="98" fill="none" stroke="#E7DFD0" stroke-width="3"/><ellipse cx="180" cy="188" rx="50" ry="34" fill="#000" opacity=".08"/><ellipse cx="180" cy="180" rx="50" ry="34" fill="url(#f)"/><ellipse cx="168" cy="170" rx="18" ry="8" fill="#fff" opacity=".35"/><ellipse cx="295" cy="183" rx="50" ry="34" fill="#000" opacity=".08"/><ellipse cx="295" cy="175" rx="50" ry="34" fill="url(#f)"/><ellipse cx="283" cy="165" rx="18" ry="8" fill="#fff" opacity=".35"/><ellipse cx="240" cy="233" rx="50" ry="34" fill="#000" opacity=".08"/><ellipse cx="240" cy="225" rx="50" ry="34" fill="url(#f)"/><ellipse cx="228" cy="215" rx="18" ry="8" fill="#fff" opacity=".35"/><ellipse cx="235" cy="153" rx="50" ry="34" fill="#000" opacity=".08"/><ellipse cx="235" cy="145" rx="50" ry="34" fill="url(#f)"/><ellipse cx="223" cy="135" rx="18" ry="8" fill="#fff" opacity=".35"/><ellipse cx="360" cy="230" rx="34" ry="22" fill="#F5F0E0" stroke="#D9D2C2" stroke-width="2"/><ellipse cx="360" cy="230" rx="26" ry="15" fill="#E7EBC9"/></svg>