<svg xmlns="http://www.w3.org/2000/svg" viewBox="0 0 480 360" width="480" height="360"><defs><radialGradient id="bg" cx="50%" cy="40%" r="75%"><stop offset="0" stop-color="#FFF8EC"/><stop offset="1" stop-color="#D35400" stop-opacity=".55"/></radialGradient><radialGradient id="f" cx="40%" cy="35%" r="70%"><stop offset="0" stop-color="#E59A4E"/><stop offset="1" stop-color="#C77B30"/></radialGradient><radialGradient id="p" cx="50%" cy="40%" r="60%"><stop offset="0" stop-color="#fff"/><stop offset=".85" stop-color="#F4EFE6"/><stop offset="1" stop-color="#E4DCCD"/></radialGradient></defs><rect width="480" height="360" fill="url(#bg)"/><path d="M0 16 Q240 24 480 16" stroke="#D35400" stroke-opacity=".12" stroke-width="2" fill="none"/><path d="M0 77 Q240 86 480 77" stroke="#D35400" stroke-opacity=".12" stroke-width="2" fill="none"/><path d="M0 134 Q240 138 480 134" stroke="#D35400" stroke-opacity=".12" stroke-width="2" fill="none"/><path d="M0 202 Q240 211 480 202" stroke="#D35400" stroke-opacity=".12" stroke-width="2" fill="none"/><path d="M0 266 Q240 266 480 266" stroke="#D35400" stroke-opacity=".12" stroke-width="2" fill="none"/><path d="M0 325 Q240 320 480 325" stroke="#D35400" stroke-opacity=".12" stroke-width="2" fill="none"/><ellipse cx="240" cy="208" rx="190" ry="128" fill="#000" opacity=".10"/><ellipse cx="240" cy="190" rx="188" ry="126" fill="url(#p)"/><ellipse cx="240" cy="190" rx="150" ry="98" fill="none" stroke="#E7DFD0" stroke-width="3"/><ellipse cx="240" cy="190" rx="128" ry="82" fill="#5B4636"/><ellipse cx="240" cy="186" rx="118" ry="72" fill="url(#f)"/><rect x="240" y="226" width="24" height="19" rx="5" fill="#FFF3DC" opacity=".85" transform="rotate(-9 240 226)"/><rect x="182" y="202" width="22" height="17" rx="5" fill="#FFF3DC" opacity=".85" transform="rotate(-11 182 202)"/><rect x="247" y="156" width="24" height="20" rx="5" fill="#FFF3DC" opacity=".85" transform="rotate(-1 247 156)"/><rect x="307" y="214" width="18" height="16" rx="5" fill="#FFF3DC" opacity=".85" transform="rotate(14 307 214)"/><rect x="303" y="218" width="17" height="16" rx="5" fill="#FFF3DC" opacity=".85" transform="rotate(27 303 218)"/><rect x="301" y="185" width="19" height="15" rx="5" fill="#FFF3DC" opacity=".85" transform="rotate(-7 301 185)"/><rect x="287" y="203" width="17" height="18" rx="5" fill="#FFF3DC" opacity=".85" transform="rotate(7 287 203)"/><rect x="210" y="186" width="21" height="16" rx="5" fill="#FFF3DC" opacity=".85" transform="rotate(0 210 186)"/><rect x="260" y="158" width="21" height="17" rx="5" fill="#FFF3DC" opacity=".85" transform="rotate(-7 260 158)"/><path d="M180 170 q40 -18 90 4" stroke="#FFF" stroke-opacity=".55" stroke-width="5" fill="none" stroke-linecap="round"/><ellipse cx="255" cy="180" rx="9" ry="4.5" fill="#3E8E41" transform="rotate(177 255 180)"/><ellipse cx="281" cy="159" rx="9" ry="4.5" fill="#3E8E41" transform="rotate(36 281 159)"/><ellipse cx="205" cy="217" rx="9" ry="4.5" fill="#3E8E41" transform="rotate(172 205 217)"/><ellipse cx="260" cy="188" rx="9" ry="4.5" fill="#3E8E41" transform="rotate(8 260 188)"/><ellipse cx="172" cy="198" rx="9" ry="4.5" fill="#3E8E41" transform="rotate(95 172 198)"/><ellipse cx="274" cy="200" rx="9" ry="4.5" fill="#3E8E41" transform="rotate(4 274 200)"/></svg>